<?xml version="1.0" encoding="utf-8"?>
<!-- Generator: Adobe Illustrator 26.0.1, SVG Export Plug-In . SVG Version: 6.00 Build 0)  -->
<svg version="1.1" id="Layer_1" xmlns="http://www.w3.org/2000/svg" xmlns:xlink="http://www.w3.org/1999/xlink" x="0px" y="0px"
	 viewBox="0 0 884.24 168.19" style="enable-background:new 0 0 884.24 168.19;" xml:space="preserve">
<style type="text/css">
	.st0{fill:#F5FF1F;stroke:#000000;stroke-miterlimit:10;}
</style>
<polygon class="st0" points="143.07,168.19 88.42,139.46 33.78,168.19 44.21,107.34 0,64.24 61.1,55.37 88.42,0 115.75,55.37 
	176.85,64.24 132.64,107.34 "/>
<polygon class="st0" points="319.92,168.19 265.27,139.46 210.62,168.19 221.06,107.34 176.85,64.24 237.95,55.37 265.27,0 
	292.6,55.37 353.7,64.24 309.49,107.34 "/>
<polygon class="st0" points="496.77,168.19 442.12,139.46 387.47,168.19 397.91,107.34 353.7,64.24 414.8,55.37 442.12,0 
	469.45,55.37 530.55,64.24 486.33,107.34 "/>
<polygon class="st0" points="673.62,168.19 618.97,139.46 564.32,168.19 574.76,107.34 530.55,64.24 591.65,55.37 618.97,0 
	646.3,55.37 707.4,64.24 663.18,107.34 "/>
<polygon class="st0" points="850.47,168.19 795.82,139.46 741.17,168.19 751.61,107.34 707.4,64.24 768.5,55.37 795.82,0 
	823.14,55.37 884.24,64.24 840.03,107.34 "/>
</svg>
