<?xml version="1.0" encoding="utf-8"?>
<!-- Generator: Adobe Illustrator 26.0.1, SVG Export Plug-In . SVG Version: 6.00 Build 0)  -->
<svg version="1.1" id="Layer_1" xmlns="http://www.w3.org/2000/svg" xmlns:xlink="http://www.w3.org/1999/xlink" x="0px" y="0px"
	 viewBox="0 0 1280 1280" style="enable-background:new 0 0 1280 1280;" xml:space="preserve">
<style type="text/css">
	.st0{fill:#8FBCD4;}
	.st1{fill:none;stroke:#000000;stroke-miterlimit:10;}
	.st2{fill:#C2BCD4;}
</style>
<path class="st0" d="M717.47,633.47c0,0-225.8,327.96-239.39,332.48c-2.14,0.71-3.89,0.86-5.32,0.61c-3.25-2.62-5.6-5.73-5.6-5.73
	c-1.16-3.87-0.67-8.26-0.67-8.26s65.85-247.22,70.72-263.78c4.87-16.56-13.14-14.24-13.14-14.24s-85.56-29.99-99.14-34.53
	s-5.94-18.78-5.94-18.78l268.35-402.7c10.63-0.57,16.08,1.11,18.66,3.53c4.82,4.51-0.23,11.61-0.23,11.61
	S579.59,552.67,574.91,566.05c-4.66,13.38,4.77,12.79,4.77,12.79s110.75,26.46,128.19,32.43
	C725.32,617.25,717.47,633.47,717.47,633.47z"/>
<path class="st1" d="M472.76,966.57c-3.17-0.53-4.8-3-5.6-5.73C467.16,960.84,469.51,963.95,472.76,966.57z"/>
<path class="st2" d="M751.05,621.12c0,0-258.27,339.43-265.55,346.89c-3.91,4.03-8.94,1.63-12.74-1.44
	c1.43,0.25,3.18,0.09,5.32-0.61c13.59-4.52,239.39-332.48,239.39-332.48s7.85-16.23-9.59-22.2
	c-17.44-5.97-128.19-32.43-128.19-32.43s-9.43,0.6-4.77-12.79c4.67-13.38,130.86-332.35,130.86-332.35s5.05-7.09,0.23-11.61
	c8.6,3.43,3.52,23.09,3.52,23.09S620,551.15,618.23,557.99c-1.77,6.85,3.31,6.41,3.31,6.41s94.74,25.67,119.91,34.52
	C766.62,607.77,751.05,621.12,751.05,621.12z"/>
</svg>
