<?xml version="1.0" encoding="utf-8"?>
<!-- Generator: Adobe Illustrator 26.0.1, SVG Export Plug-In . SVG Version: 6.00 Build 0)  -->
<svg version="1.1" id="Layer_1" xmlns="http://www.w3.org/2000/svg" xmlns:xlink="http://www.w3.org/1999/xlink" x="0px" y="0px"
	 viewBox="0 0 3200 777" style="enable-background:new 0 0 3200 777;" xml:space="preserve">
<style type="text/css">
	.st0{fill:#FFFFFF;}
	.st1{clip-path:url(#SVGID_00000116230737406535874590000006953700320267817098_);}
	.st2{clip-path:url(#SVGID_00000072961576983917278890000002248340112380886931_);}
	.st3{fill:#A6C2D2;}
	.st4{font-family:'MyriadPro-Regular';}
	.st5{font-size:472.8546px;}
	.st6{letter-spacing:-3.87;}
	.st7{letter-spacing:3.87;}
	.st8{clip-path:url(#SVGID_00000072961576983917278890000002248340112380886931_);fill:#8FBCD4;}
	
		.st9{clip-path:url(#SVGID_00000072961576983917278890000002248340112380886931_);fill:none;stroke:#000000;stroke-width:0.7483;stroke-miterlimit:10;}
	.st10{clip-path:url(#SVGID_00000072961576983917278890000002248340112380886931_);fill:#C2BCD4;}
</style>
<g>
	<rect x="87.5" y="57.5" class="st0" width="3040" height="650"/>
	<g id="PRE-VIEW_00000021812218826509705080000010174649294224517774_">
		<g>
			<defs>
				<rect id="SVGID_1_" x="201" y="126" width="2749.85" height="553"/>
			</defs>
			<clipPath id="SVGID_00000109028303173690717180000006848992063852378815_">
				<use xlink:href="#SVGID_1_"  style="overflow:visible;"/>
			</clipPath>
			<g style="clip-path:url(#SVGID_00000109028303173690717180000006848992063852378815_);">
				<defs>
					<rect id="SVGID_00000136406482747722548560000003191725638306276751_" x="201" y="126" width="2749.85" height="553"/>
				</defs>
				<clipPath id="SVGID_00000103257826763558034700000004718793113794789813_">
					<use xlink:href="#SVGID_00000136406482747722548560000003191725638306276751_"  style="overflow:visible;"/>
				</clipPath>
				<g style="clip-path:url(#SVGID_00000103257826763558034700000004718793113794789813_);">
					<text transform="matrix(1.0342 0 0 1 611.3477 540.0938)"><tspan x="0" y="0" class="st3 st4 st5">PRE</tspan><tspan x="738.59" y="0" class="st3 st4 st5 st6">-</tspan><tspan x="879.02" y="0" class="st3 st4 st5">VI</tspan><tspan x="1255.89" y="0" class="st3 st4 st5 st7">E</tspan><tspan x="1492.78" y="0" class="st3 st4 st5">W</tspan></text>
				</g>
				<path style="clip-path:url(#SVGID_00000103257826763558034700000004718793113794789813_);fill:#8FBCD4;" d="M2921.75,431.9
					c0,0-171.41,240.71-181.72,244.03c-1.63,0.52-2.95,0.63-4.04,0.45c-2.46-1.93-4.25-4.21-4.25-4.21
					c-0.88-2.85-0.51-6.06-0.51-6.06s49.99-181.45,53.69-193.61c3.7-12.15-9.98-10.45-9.98-10.45s-64.95-22.02-75.26-25.35
					c-10.31-3.34-4.51-13.79-4.51-13.79l203.7-295.57c8.07-0.41,12.2,0.82,14.17,2.59c3.66,3.31-0.18,8.52-0.18,8.52
					s-95.78,234.12-99.34,243.96c-3.53,9.81,3.62,9.38,3.62,9.38s84.08,19.42,97.32,23.8
					C2927.71,419.99,2921.75,431.9,2921.75,431.9"/>
				
					<path style="clip-path:url(#SVGID_00000103257826763558034700000004718793113794789813_);fill:none;stroke:#000000;stroke-width:0.7483;stroke-miterlimit:10;" d="
					M2735.99,676.38c-2.41-0.39-3.64-2.2-4.25-4.21C2731.74,672.18,2733.52,674.46,2735.99,676.38z"/>
				<path style="clip-path:url(#SVGID_00000103257826763558034700000004718793113794789813_);fill:#C2BCD4;" d="M2947.24,422.83
					c0,0-196.05,249.13-201.58,254.61c-2.97,2.96-6.79,1.2-9.67-1.06c1.08,0.18,2.41,0.06,4.03-0.45
					c10.31-3.32,181.72-244.03,181.72-244.03s5.96-11.91-7.28-16.29c-13.24-4.39-97.32-23.81-97.32-23.81s-7.16,0.44-3.61-9.39
					c3.54-9.81,99.33-243.93,99.33-243.93s3.84-5.2,0.18-8.52c6.53,2.52,2.67,16.94,2.67,16.94s-67.95,224.57-69.3,229.59
					c-1.34,5.02,2.51,4.7,2.51,4.7s71.92,18.84,91.03,25.33C2959.06,413.03,2947.24,422.83,2947.24,422.83"/>
				<path style="clip-path:url(#SVGID_00000103257826763558034700000004718793113794789813_);fill:#8FBCD4;" d="M230.11,430.62
					c0,0,171.41,240.71,181.72,244.03c1.63,0.52,2.96,0.63,4.04,0.45c2.47-1.93,4.25-4.21,4.25-4.21c0.88-2.85,0.51-6.06,0.51-6.06
					s-49.99-181.45-53.68-193.61c-3.7-12.15,9.98-10.45,9.98-10.45s64.95-22.01,75.26-25.35c10.31-3.33,4.52-13.78,4.52-13.78
					L252.98,126.08c-8.07-0.41-12.2,0.82-14.17,2.6c-3.66,3.3,0.18,8.51,0.18,8.51s95.78,234.12,99.34,243.96
					c3.53,9.81-3.62,9.38-3.62,9.38s-84.07,19.42-97.32,23.8C224.15,418.72,230.11,430.62,230.11,430.62"/>
				
					<path style="clip-path:url(#SVGID_00000103257826763558034700000004718793113794789813_);fill:none;stroke:#000000;stroke-width:0.7483;stroke-miterlimit:10;" d="
					M415.87,675.11c2.41-0.39,3.65-2.2,4.25-4.21C420.12,670.91,418.34,673.19,415.87,675.11z"/>
				<path style="clip-path:url(#SVGID_00000103257826763558034700000004718793113794789813_);fill:#C2BCD4;" d="M204.62,421.56
					c0,0,196.05,249.13,201.58,254.61c2.97,2.95,6.79,1.2,9.67-1.07c-1.08,0.19-2.41,0.07-4.03-0.45
					c-10.31-3.32-181.72-244.02-181.72-244.02s-5.96-11.92,7.28-16.3c13.24-4.38,97.32-23.8,97.32-23.8s7.16,0.44,3.61-9.39
					c-3.54-9.82-99.33-243.94-99.33-243.94s-3.84-5.2-0.18-8.51c-6.53,2.52-2.67,16.94-2.67,16.94s67.96,224.57,69.3,229.58
					c1.34,5.03-2.51,4.71-2.51,4.71s-71.92,18.84-91.03,25.33C192.8,411.77,204.62,421.56,204.62,421.56"/>
			</g>
		</g>
	</g>
</g>
</svg>
