<?xml version="1.0" encoding="utf-8"?>
<!-- Generator: Adobe Illustrator 26.0.1, SVG Export Plug-In . SVG Version: 6.00 Build 0)  -->
<svg version="1.1" id="Layer_1" xmlns="http://www.w3.org/2000/svg" xmlns:xlink="http://www.w3.org/1999/xlink" x="0px" y="0px"
	 viewBox="0 0 761.44 87.25" style="enable-background:new 0 0 761.44 87.25;" xml:space="preserve">
<style type="text/css">
	.st0{fill:#8FBCD4;}
	.st1{fill:none;stroke:#000000;stroke-width:0.0883;stroke-miterlimit:10;}
	.st2{fill:#C2BCD4;}
</style>
<symbol  id="PRE-VIEW" viewBox="-159.86 -33.25 319.73 66.5">
	
		<text transform="matrix(1 0 0 -1 -112.1533 -16.5464)" style="fill:#A6C2D2; font-family:'MyriadPro-Regular'; font-size:56.8624px;">PRE-VIEW</text>
	<g>
		<path class="st0" d="M156.48-3.54c0,0-19.93-28.95-21.13-29.35c-0.19-0.06-0.34-0.08-0.47-0.05c-0.29,0.23-0.49,0.51-0.49,0.51
			c-0.1,0.34-0.06,0.73-0.06,0.73s5.81,21.82,6.24,23.28c0.43,1.46-1.16,1.26-1.16,1.26s-7.55,2.65-8.75,3.05s-0.52,1.66-0.52,1.66
			l23.69,35.54c0.94,0.05,1.42-0.1,1.65-0.31c0.43-0.4-0.02-1.02-0.02-1.02S144.31,3.6,143.9,2.42c-0.41-1.18,0.42-1.13,0.42-1.13
			s9.78-2.34,11.31-2.86C157.17-2.1,156.48-3.54,156.48-3.54z"/>
		<path class="st1" d="M134.88-32.94c-0.28,0.05-0.42,0.26-0.49,0.51C134.39-32.43,134.59-32.7,134.88-32.94z"/>
		<path class="st2" d="M159.44-2.45c0,0-22.8-29.96-23.44-30.62c-0.35-0.36-0.79-0.14-1.12,0.13c0.13-0.02,0.28-0.01,0.47,0.05
			c1.2,0.4,21.13,29.35,21.13,29.35s0.69,1.43-0.85,1.96c-1.54,0.53-11.31,2.86-11.31,2.86s-0.83-0.05-0.42,1.13
			c0.41,1.18,11.55,29.33,11.55,29.33s0.45,0.63,0.02,1.02c0.76-0.3,0.31-2.04,0.31-2.04s-7.9-27-8.06-27.61
			c-0.16-0.6,0.29-0.57,0.29-0.57s8.36-2.27,10.58-3.05C160.82-1.27,159.44-2.45,159.44-2.45z"/>
	</g>
	<g>
		<path class="st0" d="M-156.48-3.38c0,0,19.93-28.95,21.13-29.35c0.19-0.06,0.34-0.08,0.47-0.05c0.29,0.23,0.49,0.51,0.49,0.51
			c0.1,0.34,0.06,0.73,0.06,0.73s-5.81,21.82-6.24,23.28c-0.43,1.46,1.16,1.26,1.16,1.26s7.55,2.65,8.75,3.05s0.52,1.66,0.52,1.66
			l-23.69,35.54c-0.94,0.05-1.42-0.1-1.65-0.31c-0.43-0.4,0.02-1.02,0.02-1.02s11.14-28.15,11.55-29.34
			c0.41-1.18-0.42-1.13-0.42-1.13s-9.78-2.34-11.31-2.86C-157.17-1.95-156.48-3.38-156.48-3.38z"/>
		<path class="st1" d="M-134.88-32.78c0.28,0.05,0.42,0.26,0.49,0.51C-134.39-32.28-134.59-32.55-134.88-32.78z"/>
		<path class="st2" d="M-159.44-2.29c0,0,22.8-29.96,23.44-30.62c0.35-0.36,0.79-0.14,1.12,0.13c-0.13-0.02-0.28-0.01-0.47,0.05
			c-1.2,0.4-21.13,29.35-21.13,29.35s-0.69,1.43,0.85,1.96c1.54,0.53,11.31,2.86,11.31,2.86s0.83-0.05,0.42,1.13
			c-0.41,1.18-11.55,29.33-11.55,29.33s-0.45,0.63-0.02,1.02c-0.76-0.3-0.31-2.04-0.31-2.04s7.9-27,8.06-27.61
			c0.16-0.6-0.29-0.57-0.29-0.57s-8.36-2.27-10.58-3.05C-160.82-1.11-159.44-2.29-159.44-2.29z"/>
	</g>
</symbol>
<use xlink:href="#PRE-VIEW"  width="319.73" height="66.5" x="-159.86" y="-33.25" transform="matrix(1 0 0 -1 364.7672 42.5386)" style="overflow:visible;"/>
</svg>
