<?xml version="1.0" encoding="utf-8"?>
<!-- Generator: Adobe Illustrator 26.0.1, SVG Export Plug-In . SVG Version: 6.00 Build 0)  -->
<svg version="1.1" id="Layer_1" xmlns="http://www.w3.org/2000/svg" xmlns:xlink="http://www.w3.org/1999/xlink" x="0px" y="0px"
	 viewBox="0 0 761.44 87.25" style="enable-background:new 0 0 761.44 87.25;" xml:space="preserve">
<style type="text/css">
	.st0{fill:#FFFFFF;}
	.st1{fill:#8FBCD4;}
	.st2{font-family:'MyriadPro-Regular';}
	.st3{font-size:46px;}
	.st4{fill:none;stroke:#000000;stroke-width:0.0788;stroke-miterlimit:10;}
	.st5{fill:#C2BCD4;}
</style>
<rect class="st0" width="761.44" height="87.25"/>
<text transform="matrix(1 0 0 1 301.9791 59.6204)" class="st1 st2 st3">REVIEW</text>
<g>
	<path class="st1" d="M510.32,42.72c0,0-17.8,25.85-18.87,26.21c-0.17,0.06-0.31,0.07-0.42,0.05c-0.26-0.21-0.44-0.45-0.44-0.45
		c-0.09-0.31-0.05-0.65-0.05-0.65s5.19-19.49,5.57-20.79c0.38-1.31-1.04-1.12-1.04-1.12s-6.74-2.36-7.82-2.72
		c-1.07-0.36-0.47-1.48-0.47-1.48l21.15-31.75c0.84-0.04,1.27,0.09,1.47,0.28c0.38,0.36-0.02,0.92-0.02,0.92s-9.95,25.15-10.32,26.2
		c-0.37,1.05,0.38,1.01,0.38,1.01s8.73,2.09,10.11,2.56C510.94,41.44,510.32,42.72,510.32,42.72z"/>
	<path class="st4" d="M491.03,68.97c-0.25-0.04-0.38-0.24-0.44-0.45C490.59,68.52,490.78,68.77,491.03,68.97z"/>
	<path class="st5" d="M512.97,41.74c0,0-20.36,26.76-20.93,27.35c-0.31,0.32-0.7,0.13-1-0.11c0.11,0.02,0.25,0.01,0.42-0.05
		c1.07-0.36,18.87-26.21,18.87-26.21s0.62-1.28-0.76-1.75c-1.37-0.47-10.11-2.56-10.11-2.56s-0.74,0.05-0.38-1.01
		c0.37-1.05,10.32-26.2,10.32-26.2s0.4-0.56,0.02-0.92c0.68,0.27,0.28,1.82,0.28,1.82s-7.06,24.12-7.2,24.66
		c-0.14,0.54,0.26,0.51,0.26,0.51s7.47,2.02,9.45,2.72S512.97,41.74,512.97,41.74z"/>
</g>
<g>
	<path class="st1" d="M243.35,42.72c0,0,17.8,25.85,18.87,26.21c0.17,0.06,0.31,0.07,0.42,0.05c0.26-0.21,0.44-0.45,0.44-0.45
		c0.09-0.31,0.05-0.65,0.05-0.65s-5.19-19.49-5.58-20.79c-0.38-1.31,1.04-1.12,1.04-1.12s6.74-2.36,7.82-2.72
		c1.07-0.36,0.47-1.48,0.47-1.48l-21.15-31.75c-0.84-0.04-1.27,0.09-1.47,0.28c-0.38,0.36,0.02,0.92,0.02,0.92
		s9.95,25.15,10.32,26.2c0.37,1.05-0.38,1.01-0.38,1.01s-8.73,2.09-10.11,2.56C242.73,41.44,243.35,42.72,243.35,42.72z"/>
	<path class="st4" d="M262.64,68.97c0.25-0.04,0.38-0.24,0.44-0.45C263.08,68.52,262.89,68.77,262.64,68.97z"/>
	<path class="st5" d="M240.7,41.74c0,0,20.36,26.76,20.93,27.35c0.31,0.32,0.7,0.13,1-0.11c-0.11,0.02-0.25,0.01-0.42-0.05
		c-1.07-0.36-18.87-26.21-18.87-26.21s-0.62-1.28,0.76-1.75c1.37-0.47,10.11-2.56,10.11-2.56s0.74,0.05,0.38-1.01
		c-0.37-1.05-10.32-26.2-10.32-26.2s-0.4-0.56-0.02-0.92c-0.68,0.27-0.28,1.82-0.28,1.82s7.06,24.12,7.2,24.66
		c0.14,0.54-0.26,0.51-0.26,0.51s-7.47,2.02-9.45,2.72S240.7,41.74,240.7,41.74z"/>
</g>
</svg>
