<?xml version="1.0" encoding="utf-8"?>
<!-- Generator: Adobe Illustrator 26.0.1, SVG Export Plug-In . SVG Version: 6.00 Build 0)  -->
<svg version="1.1" id="Layer_1" xmlns="http://www.w3.org/2000/svg" xmlns:xlink="http://www.w3.org/1999/xlink" x="0px" y="0px"
	 viewBox="0 0 435.34 168.19" style="enable-background:new 0 0 435.34 168.19;" xml:space="preserve">
<style type="text/css">
	.st0{fill:#A6C2D2;}
	.st1{font-family:'MyriadPro-Regular';}
	.st2{font-size:56.8624px;}
	.st3{fill:#8FBCD4;}
	.st4{fill:none;stroke:#000000;stroke-width:0.1649;stroke-miterlimit:10;}
	.st5{fill:#C2BCD4;}
</style>
<text transform="matrix(1 0 0 1 101.373 103.7792)" class="st0 st1 st2">PRE-VIEW</text>
<g>
	<path class="st3" d="M401.73,90.71c0,0-37.25,54.1-39.49,54.84c-0.35,0.12-0.64,0.14-0.88,0.1c-0.54-0.43-0.92-0.95-0.92-0.95
		c-0.19-0.64-0.11-1.36-0.11-1.36s10.86-40.78,11.67-43.51c0.8-2.73-2.17-2.35-2.17-2.35s-14.11-4.95-16.35-5.7
		c-2.24-0.75-0.98-3.1-0.98-3.1l44.26-66.43c1.75-0.09,2.65,0.18,3.08,0.58c0.8,0.74-0.04,1.92-0.04,1.92s-20.81,52.62-21.59,54.82
		C377.44,81.8,379,81.7,379,81.7s18.27,4.36,21.14,5.35C403.02,88.04,401.73,90.71,401.73,90.71z"/>
	<path class="st4" d="M361.36,145.66c-0.52-0.09-0.79-0.49-0.92-0.95C360.44,144.71,360.82,145.22,361.36,145.66z"/>
	<path class="st5" d="M407.26,88.68c0,0-42.6,55.99-43.8,57.22c-0.64,0.66-1.47,0.27-2.1-0.24c0.24,0.04,0.52,0.01,0.88-0.1
		c2.24-0.75,39.49-54.84,39.49-54.84s1.29-2.68-1.58-3.66C397.27,86.07,379,81.7,379,81.7s-1.56,0.1-0.79-2.11
		c0.77-2.21,21.59-54.82,21.59-54.82s0.83-1.17,0.04-1.92c1.42,0.57,0.58,3.81,0.58,3.81s-14.77,50.47-15.06,51.6
		c-0.29,1.13,0.55,1.06,0.55,1.06s15.63,4.23,19.78,5.69C409.83,86.47,407.26,88.68,407.26,88.68z"/>
</g>
<g>
	<path class="st3" d="M28.42,90.71c0,0,37.25,54.1,39.49,54.84c0.35,0.12,0.64,0.14,0.88,0.1c0.54-0.43,0.92-0.95,0.92-0.95
		c0.19-0.64,0.11-1.36,0.11-1.36s-10.86-40.78-11.67-43.51c-0.8-2.73,2.17-2.35,2.17-2.35s14.11-4.95,16.35-5.7s0.98-3.1,0.98-3.1
		L33.39,22.27c-1.75-0.09-2.65,0.18-3.08,0.58c-0.8,0.74,0.04,1.92,0.04,1.92s20.81,52.62,21.59,54.82
		c0.77,2.21-0.79,2.11-0.79,2.11S32.88,86.07,30,87.05C27.13,88.04,28.42,90.71,28.42,90.71z"/>
	<path class="st4" d="M68.79,145.66c0.52-0.09,0.79-0.49,0.92-0.95C69.71,144.71,69.32,145.22,68.79,145.66z"/>
	<path class="st5" d="M22.88,88.68c0,0,42.6,55.99,43.8,57.22c0.64,0.66,1.47,0.27,2.1-0.24c-0.24,0.04-0.52,0.01-0.88-0.1
		c-2.24-0.75-39.49-54.84-39.49-54.84s-1.29-2.68,1.58-3.66c2.88-0.98,21.14-5.35,21.14-5.35s1.56,0.1,0.79-2.11
		c-0.77-2.21-21.59-54.82-21.59-54.82s-0.83-1.17-0.04-1.92c-1.42,0.57-0.58,3.81-0.58,3.81s14.77,50.47,15.06,51.6
		c0.29,1.13-0.55,1.06-0.55,1.06s-15.63,4.23-19.78,5.69C20.31,86.47,22.88,88.68,22.88,88.68z"/>
</g>
</svg>
